<?xml version="1.0"?><svg width="640" height="480" xmlns="http://www.w3.org/2000/svg">
 <!-- Created with SVG-edit - http://svg-edit.googlecode.com/ -->
 <g>
  <title>Layer 1</title>
  <path id="svg_3" d="m258,132c64.666656,-7.666672 132.333344,106.666672 32,142l-6,-12c85,-34.666672 32,-121.333328 -21,-119l-5,-11z" stroke-linecap="round" stroke-linejoin="round" stroke-dasharray="null" stroke-width="5" stroke="#000000" fill="#aaaaff"/>
  <path id="svg_2" d="m263.571442,127l36.428558,-35c-23.938782,-4.666656 -36.428558,-14.333344 -71.81633,-14c-36.428574,-0.333344 -54.122437,19.333344 -81.18367,29l116.571442,20z" stroke-linecap="round" stroke-linejoin="round" stroke-dasharray="null" stroke-width="5" stroke="#000000" fill="#7f7f7f"/>
  <path stroke-linecap="round" stroke-linejoin="round" id="svg_1" d="m101,105c24,11.666656 53,20.333328 51,46c-2,25.666672 -95.666672,140 -20,181c75.666672,41 149,27.333313 193,-19c44,-46.333313 -53,-139.666672 -56,-162c-3,-22.333328 20,-38.666656 30,-58c-23,7.666656 -44,9.333344 -70,7c-26,-2.333344 -65,-25.666656 -128,5z" stroke-width="5" stroke="#000000" fill="#aaaaff"/>
 </g>
</svg>